<?xml version="1.0" encoding="utf-8"?>
<!-- Generator: Adobe Illustrator 15.1.0, SVG Export Plug-In . SVG Version: 6.00 Build 0)  -->
<!DOCTYPE svg PUBLIC "-//W3C//DTD SVG 1.1//EN" "http://www.w3.org/Graphics/SVG/1.1/DTD/svg11.dtd">
<svg version="1.1" id="Capa_1" xmlns="http://www.w3.org/2000/svg" xmlns:xlink="http://www.w3.org/1999/xlink" x="0px" y="0px"
	 width="792px" height="424px" viewBox="0 0 792 424" enable-background="new 0 0 792 424" xml:space="preserve">
<path fill="#FFFFFF" d="M438.778,154.811h-12.327v73.834c0,10.549,6.099,16.266,15.632,16.266c3.177,0,9.276-0.508,11.82-1.654
	l-1.401-9.531h-5.719c-5.338,0-8.13-2.666-8.13-7.877L438.778,154.811z M374.021,222.545c0-4.703,1.652-7.625,7.37-7.879h22.622
	v11.057c-7.116,6.354-15.377,8.768-20.969,8.768c-6.228,0-9.023-2.545-9.023-8.643V222.545z M394.354,180.1
	c-8.642,0-21.349,1.398-30.118,2.924l1.145,9.02c9.657-0.76,20.207-1.523,26.306-1.523c9.531,0,12.2,2.414,12.327,10.041v4.828
	h-24.908c-11.185,0-17.536,5.592-17.536,15.504v6.48c0,11.311,7.623,17.537,18.933,17.537s20.205-6.227,24.783-10.928l1.398,9.783
	h9.655v-43.205C416.338,184.928,408.714,180.1,394.354,180.1 M336.533,191.283h19.191v-9.531h-19.191v-18.174h-12.199v18.174
	l-11.31,0.637v8.895h11.31V227.5c0,11.184,5.592,17.41,16.142,17.41c3.304,0,10.546-0.508,14.612-1.654l-1.398-9.531h-9.021
	c-5.974,0-8.135-2.031-8.135-7.877V191.283z M305.207,181.752h-12.199v62.014h12.199V181.752z M296.183,155.318
	c-2.413,0-3.558,1.398-3.558,3.557v7.117c0,2.414,1.145,3.686,3.558,3.686h5.847c2.414,0,3.557-1.271,3.557-3.686v-7.117
	c0-2.158-1.143-3.557-3.557-3.557H296.183z M268.607,249.102c0,8.008-3.559,9.662-18.045,9.662c-14.741,0-18.299-1.273-18.299-9.662
	c0-4.572,2.033-7.369,5.846-10.543l19.952,2.539C266.703,242.367,268.607,243.131,268.607,249.102 M249.926,210.598
	c-11.816,0-15.756-2.924-15.756-10.547c0-7.879,3.939-10.547,15.756-10.547c11.693,0,15.506,2.668,15.506,10.547
	C265.432,207.674,261.619,210.598,249.926,210.598 M283.478,188.359l0.636-6.607h-19.191c-3.811-1.143-8.768-1.652-14.867-1.652
	c-20.461,0-27.068,5.721-27.068,20.08c0,8.004,2.288,13.34,8.135,16.389c-5.593,4.199-6.991,14.365-0.893,19.318
	c-6.86,3.684-9.91,7.244-9.91,14.234c0,14.357,7.496,19.061,30.372,19.061c22.619,0,29.99-4.703,29.99-19.443
	c0-10.42-4.32-15.883-16.267-17.662l-22.873-3.561c-5.846-0.889-6.228-6.1-3.941-9.658c3.307,0.637,7.498,1.02,12.326,1.02
	c20.207,0,26.941-5.975,26.941-19.826c0-4.447-0.636-8.008-2.16-10.805L283.478,188.359z M212.43,181.752h-12.198v62.014h12.198
	V181.752z M203.41,155.318c-2.414,0-3.561,1.398-3.561,3.557v7.117c0,2.414,1.146,3.686,3.561,3.686h5.844
	c2.414,0,3.559-1.271,3.559-3.686v-7.117c0-2.158-1.145-3.557-3.559-3.557H203.41z M131.684,233.6v-67.352l23.301,0.018
	c16.013,0,21.223,8.115,21.223,33.658c0,25.541-5.21,33.658-21.223,33.658L131.684,233.6z M154.984,244.91
	c25.543,0,34.693-10.928,34.693-44.986c0-34.057-8.994-45.113-34.693-45.113h-36.01v90.182L154.984,244.91z"/>
<path fill="#FFFFFF" d="M673.751,181.117h-19.827l-11.31,39.268c-1.016,3.684-1.906,7.496-2.92,11.182h-1.653
	c-0.766-3.686-1.653-7.498-2.669-11.182l-11.312-39.268h-19.952l20.588,58.201c0.888,2.666,3.18,4.447,6.104,4.447h16.261
	c2.924,0,5.216-1.781,6.104-4.447L673.751,181.117z M574.118,193.062c8.131,0,10.675,2.031,10.675,7.877
	c0,3.557-0.763,6.48-5.847,6.48h-17.791C561.663,195.602,564.713,192.934,574.118,193.062 M576.405,230.295
	c-9.533,0-13.597-2.033-14.867-11.564h22.619c13.596,0,19.062-6.1,19.062-17.535c-0.128-14.363-8.391-21.859-29.739-21.859
	c-22.747,0-31.895,8.387-31.895,33.168c0,23.129,8.896,32.789,32.657,32.789c8.896,0,19.953-1.146,27.322-4.703l-1.778-11.693
	C591.271,229.787,582.126,230.295,576.405,230.295 M496.854,229.66c-5.338,0-10.293-0.129-14.741-0.129v-59.346
	c4.448,0,9.148-0.125,14.741-0.125c13.086,0,17.031,6.861,17.031,29.863C513.886,222.924,509.94,229.66,496.854,229.66
	 M496.854,154.938c-13.346,0-24.02,0.508-34.056,1.145v87.684c10.036,0.633,20.838,1.145,34.056,1.145
	c27.575,0,37.359-10.295,37.359-44.986C534.214,165.23,524.43,154.938,496.854,154.938"/>
</svg>
